<svg width="61" height="54" viewBox="0 0 61 54" fill="none" xmlns="http://www.w3.org/2000/svg">
<path d="M53.7165 9.77452L58.7462 12.0413C61.7464 13.3661 61.7464 17.2815 58.7756 18.6651L58.0403 19.0006V22.5954C58.5801 22.8578 58.9522 23.4118 58.9522 24.0528C58.9522 24.6272 58.6534 25.1317 58.2028 25.4191C58.3535 25.5772 58.4626 25.7762 58.5112 25.9954C58.5251 26.0716 58.5394 26.1507 58.5542 26.2321L58.5598 26.2624C58.733 27.2147 58.9602 28.464 59.0407 29.0276C59.0681 29.5484 59.1719 30.6563 59.2574 31.5669L59.2575 31.569L59.276 31.7654C59.3348 32.4425 58.8054 33.0313 58.1288 33.0313H56.5405C55.864 33.0313 55.3346 32.4425 55.3934 31.7654C55.4816 30.8234 55.5993 29.6164 55.6875 29.0276C55.7758 28.3799 56.0405 26.9374 56.217 25.9954C56.2514 25.7768 56.3488 25.5852 56.488 25.4328C56.0253 25.1479 55.7167 24.6364 55.7167 24.0528C55.7167 23.4003 56.1023 22.838 56.6579 22.5816V19.6312L48.1279 23.5226L31.0092 31.3534C30.5092 31.5889 29.9209 31.5889 29.4209 31.3534L2.53692 19.0478C-0.845639 17.517 -0.845639 13.1306 2.53692 11.5703L12.3022 7.09555L25.0089 1.29604C28.2738 -0.205357 32.1269 -0.205357 35.3918 1.35492L41.2451 4.06332C43.1276 4.9465 43.2158 7.30163 41.5687 8.36144L38.1273 9.95115L37.8626 10.0689C37.8626 10.0983 37.8332 10.0983 37.8332 10.0983L30.1268 13.6605C29.6562 13.8666 29.4503 14.4259 29.6562 14.8969C29.8033 15.2208 30.1562 15.4268 30.5092 15.4268C30.6268 15.4268 30.7739 15.3974 30.8916 15.3385L38.4508 11.8647C38.495 11.85 38.5317 11.8353 38.5685 11.8205C38.6053 11.8058 38.642 11.7911 38.6861 11.7764L43.0394 9.80396C46.4219 8.27312 50.3633 8.27312 53.7165 9.77452Z" fill="#3252C3"/>
<path fill-rule="evenodd" clip-rule="evenodd" d="M16.8329 29.6072C17.2469 29.3351 17.77 29.2899 18.2246 29.4869L29.4255 34.3419C30.0265 34.5957 30.6965 34.5957 31.2974 34.3419L42.4984 29.4869C42.9529 29.2899 43.476 29.3351 43.8901 29.6072C44.3041 29.8794 44.5535 30.3418 44.5535 30.8376V32.0473L45.2065 31.7893C46.8554 31.1162 48.6279 32.3837 48.6279 34.1208V44.3951C48.6279 45.4016 48.0371 46.2752 47.138 46.6842L47.128 46.6887L31.3111 53.6036C30.6777 53.8961 29.9288 53.8961 29.2954 53.6036L13.4785 46.6887L13.4686 46.6842C12.5695 46.2752 11.9786 45.4016 11.9786 44.3951V34.1208C11.9786 32.3599 13.7686 31.1612 15.3899 31.7853L15.3959 31.7877L16.1694 32.0933V30.8376C16.1694 30.3418 16.4188 29.8794 16.8329 29.6072ZM16.1694 42.1423V33.6758L14.8593 33.1581C14.187 32.9014 13.4493 33.4098 13.4493 34.1208V44.3951C13.4493 44.8002 13.6804 45.1618 14.0728 45.3423L29.8917 52.258C29.8952 52.2595 29.8987 52.2611 29.9022 52.2627C29.9042 52.2636 29.9063 52.2646 29.9083 52.2655C30.1524 52.3795 30.4541 52.3795 30.6982 52.2655C30.7005 52.2644 30.7029 52.2634 30.7052 52.2623C30.7084 52.2608 30.7116 52.2594 30.7149 52.258L46.5337 45.3422C46.9262 45.1618 47.1572 44.8001 47.1572 44.3951V34.1208C47.1572 33.3868 46.4038 32.8887 45.7598 33.1531L45.7507 33.1568L44.5535 33.6298V42.1423C44.5535 42.7285 44.2059 43.2589 43.6685 43.4924L30.9325 49.027C30.5585 49.1895 30.1338 49.1894 29.7599 49.0265L17.0533 43.4919C16.5166 43.2582 16.1694 42.7281 16.1694 42.1423Z" fill="#3252C3"/>
</svg>
